<svg width="146" height="146" viewBox="0 0 146 146" fill="none" xmlns="http://www.w3.org/2000/svg">
<circle cx="66.4432" cy="88.299" r="43.5946" transform="rotate(-2.63701 66.4432 88.299)" fill="#510F10"/>
<g clip-path="url(#clip0_5_659)">
<path d="M103.485 82.2904C103.309 82.199 103.132 82.1131 102.956 82.0326C96.0496 78.8049 87.7682 81.5816 84.2339 88.4108C81.1672 94.3362 82.6548 101.419 87.4297 105.655C88.2966 106.425 89.2743 107.103 90.3545 107.662C97.3602 111.288 105.98 108.547 109.606 101.541C113.231 94.5356 110.491 85.9159 103.485 82.2904ZM93.4165 101.745C93.04 101.55 92.6855 101.329 92.3572 101.083C89.4178 98.893 88.4101 94.8362 90.1505 91.4733C91.9946 87.9101 96.2575 86.4146 99.8897 87.9563C100.068 88.0325 100.246 88.1162 100.423 88.2075C104.162 90.1428 105.624 94.7401 103.688 98.4795C101.753 102.219 97.1559 103.681 93.4165 101.745Z" fill="#FEE6CC"/>
<path d="M90.1506 91.4731C88.4102 94.836 89.4176 98.8929 92.3573 101.082C90.8941 102.829 89.2343 104.36 87.4296 105.655C82.6549 101.419 81.1671 94.3364 84.2338 88.4109C87.7681 81.5817 96.0493 78.805 102.956 82.0328L99.89 87.9562C96.2575 86.4146 91.9946 87.9101 90.1506 91.4731Z" fill="#FCCE99"/>
<path d="M100.645 78.4754L92.539 94.1375C85.6569 107.435 69.3169 112.913 55.9706 106.125C53.1415 104.686 50.6733 102.821 48.6036 100.647C41.8852 93.5932 39.3707 83.298 42.3492 73.8108C42.8152 72.3252 43.4153 70.8599 44.1558 69.4291L52.3966 53.5057C52.8943 52.544 54.0775 52.1677 55.0394 52.6655L99.8042 75.8327C100.766 76.3305 101.142 77.5137 100.645 78.4754Z" fill="#FEE6CC"/>
<path d="M50.3788 99.631C49.8262 100.019 49.231 100.357 48.6039 100.646C41.8854 93.5931 39.3709 83.2979 42.3495 73.8107C42.8331 74.3365 43.253 74.9166 43.5964 75.5389C44.4409 77.0698 44.8023 78.8117 44.6864 80.6067C45.5353 80.8904 46.3562 81.2335 47.1349 81.6365C52.6021 84.4659 55.4536 89.7881 54.0693 94.5765C53.4874 96.5971 52.2094 98.3444 50.3788 99.631Z" fill="#FCCE99"/>
<path d="M94.9772 89.4263L92.4038 94.3987C85.5089 107.721 69.1189 112.93 55.7961 106.035C42.4734 99.1405 37.2611 82.7518 44.1561 69.429L46.7294 64.4566C39.8345 77.7794 45.0458 94.1703 58.3684 101.065C71.691 107.96 88.0822 102.749 94.9772 89.4263Z" fill="#FCCE99"/>
<path d="M72.8311 120.387L34.2414 100.416L30.9573 106.761L69.547 126.733L72.8311 120.387Z" fill="#FCCE99"/>
<path d="M48.2898 96.6569C46.0323 98.2409 42.529 98.7329 38.9793 97.706C33.676 96.1726 30.2713 91.8354 31.3755 88.0148C31.3846 87.9814 31.3949 87.9511 31.4061 87.9188C32.5657 84.1653 37.7193 82.356 42.9752 83.8757C48.2785 85.4091 51.6832 89.7463 50.579 93.5668C50.2147 94.8296 49.4039 95.8749 48.2898 96.6569Z" fill="#E2780E"/>
<path d="M48.2898 96.6569C46.0323 98.2409 42.529 98.7329 38.9793 97.706C33.676 96.1726 30.2713 91.8354 31.3755 88.0149C31.3846 87.9814 31.3949 87.9511 31.4061 87.9188L48.2898 96.6569Z" fill="#A85000"/>
<path d="M38.9788 97.7053C33.677 96.1729 30.2728 91.835 31.3766 88.0158C31.5245 87.5038 31.746 87.0256 32.0336 86.5892C32.0818 89.9647 35.2514 93.3951 39.8412 94.7217C44.4308 96.0481 48.9418 94.8376 50.7834 92.0083C50.7938 92.5307 50.7259 93.0534 50.5779 93.5654C49.4742 97.3844 44.2807 99.2375 38.9788 97.7053Z" fill="#A85000"/>
<path d="M35.1395 88.4217C34.6667 88.6816 34.188 88.9112 33.7061 89.1093C29.2684 90.9319 24.6427 90.0873 22.9125 86.9468C22.29 85.8198 22.1172 84.5356 22.3305 83.2221C22.7794 80.4836 24.9181 77.6215 28.1862 75.8183C33.0203 73.1507 38.4939 73.8121 40.4132 77.2933C42.3336 80.7723 39.9725 85.7563 35.1395 88.4217Z" fill="#E2780E"/>
<path d="M33.7061 89.1094C29.2684 90.9319 24.6426 90.0873 22.9125 86.9468C22.29 85.8198 22.1172 84.5356 22.3305 83.2221L33.7061 89.1094Z" fill="#A85000"/>
<path d="M35.1391 88.4226C30.3065 91.0881 24.8321 90.4278 22.9121 86.9468C22.6546 86.4801 22.4732 85.9853 22.3677 85.4734C24.7888 87.8262 29.4556 88.0105 33.639 85.7031C37.8224 83.3957 40.156 79.3501 39.4575 76.0472C39.8343 76.4094 40.1559 76.8267 40.4133 77.2936C42.3336 80.7746 39.9716 85.7572 35.1391 88.4226Z" fill="#A85000"/>
<path d="M16.7238 84.1412L15.0924 87.2934L33.479 101.719L72.2079 121.763L94.6032 128.443L96.2346 125.291L16.7238 84.1412Z" fill="#FEE6CC"/>
<path d="M96.9177 123.972L84.1874 117.383C83.4592 117.006 82.5636 117.291 82.1868 118.019C81.81 118.747 82.0946 119.643 82.8228 120.02L94.2347 125.926L93.8498 126.67L72.7665 120.38L34.2862 100.466L16.9763 86.8853L17.3612 86.1415L22.603 88.8543C22.6051 88.8554 22.6071 88.8569 22.609 88.8579C22.6106 88.8587 22.6125 88.8592 22.6141 88.8601L27.3641 91.3183C27.3657 91.3192 27.3669 91.3203 27.3685 91.3211C27.371 91.3223 27.3738 91.3234 27.3762 91.3246L43.1821 99.5047C43.183 99.5051 43.1838 99.5058 43.1849 99.5063C43.1857 99.5068 43.1865 99.507 43.1874 99.5074L47.8975 101.945C47.8989 101.946 47.9002 101.947 47.9016 101.948C47.903 101.948 47.9047 101.949 47.9061 101.949L63.6897 110.118C63.6913 110.119 63.6925 110.12 63.6939 110.121C63.6953 110.121 63.6969 110.122 63.6982 110.122L77.9271 117.486C78.6554 117.863 79.551 117.578 79.9278 116.85C80.3046 116.122 80.02 115.226 79.2917 114.85L70.788 110.449C72.8803 110.263 74.9561 109.852 76.9603 109.215C79.8543 108.294 82.5363 106.947 84.9399 105.233C86.2556 106.775 87.8424 108.033 89.6725 108.981C97.3937 112.977 106.927 109.945 110.923 102.223C114.919 94.5016 111.889 84.9691 104.167 80.9731C103.331 80.54 102.462 80.1868 101.572 79.9113L101.962 79.157C102.836 77.4695 102.173 75.3861 100.486 74.5128L94.2509 71.2859C93.5227 70.909 92.6271 71.1939 92.2503 71.922C91.8734 72.6501 92.1581 73.5458 92.8863 73.9227L99.1215 77.1496C99.355 77.2704 99.4467 77.5588 99.3257 77.7924L98.1658 80.0336L52.5554 56.4288L53.7153 54.1875C53.8362 53.9539 54.1245 53.8622 54.3582 53.9831L87.989 71.3882C88.7173 71.7651 89.6129 71.4802 89.9897 70.7521C90.3665 70.024 90.0819 69.1283 89.3536 68.7514L55.7228 51.3464C54.0352 50.473 51.9519 51.1354 51.0785 52.8229L42.8382 68.7454C41.8091 70.7338 41.0214 72.8256 40.4836 74.9749C38.6689 73.2246 35.8518 72.404 32.6927 72.7929C31.8789 72.893 31.3003 73.6337 31.4004 74.4475C31.5008 75.2612 32.2418 75.8397 33.0553 75.7396C35.1256 75.4848 36.9427 75.9046 38.132 76.8571L29.6117 81.5565C28.8937 81.9524 28.6327 82.8555 29.0286 83.5732C29.1757 83.8401 29.3932 84.044 29.6449 84.1743C30.0704 84.3945 30.5945 84.405 31.0453 84.1562L39.5683 79.4551C39.6838 80.4524 39.4559 81.5614 38.8851 82.6959C38.8848 82.6964 38.8846 82.6968 38.8844 82.6973C38.8831 82.6997 38.882 82.7023 38.8807 82.7048C37.9971 84.4556 36.4136 86.0245 34.4222 87.1227C33.2868 87.7491 32.1053 88.1786 30.9043 88.4004C30.0696 88.5581 29.253 88.6073 28.4726 88.5491L24.3078 86.3936C24.2749 86.3405 24.2422 86.2873 24.2115 86.2308C22.7752 83.6288 24.5986 79.7655 28.3624 77.4355C29.0596 77.004 29.275 76.089 28.8435 75.3919C28.4122 74.6953 27.4972 74.4794 26.8 74.911C24.4007 76.3961 22.5323 78.4672 21.539 80.7432C20.9754 82.0345 20.7199 83.3288 20.7648 84.5598L17.4075 82.8223C16.6792 82.4454 15.7836 82.7303 15.4068 83.4584L13.7748 86.6119C13.447 87.2453 13.6159 88.022 14.1769 88.4621L31.6586 102.177L29.6394 106.079C29.2626 106.807 29.5472 107.703 30.2754 108.08L68.8648 128.051C69.593 128.428 70.4886 128.143 70.8655 127.415L72.8845 123.513L94.179 129.866C94.8623 130.07 95.5941 129.759 95.9218 129.126L97.5538 125.972C97.9306 125.244 97.6458 124.348 96.9177 123.972ZM96.9504 88.8416C97.9173 88.8448 98.8699 89.0739 99.7414 89.5249C102.747 91.0805 103.927 94.7913 102.371 97.797C100.816 100.803 97.1049 101.983 94.0992 100.427C93.1414 99.9313 92.3481 99.2054 91.7719 98.3126C92.4853 97.2862 93.138 96.2077 93.7221 95.079L96.9504 88.8416ZM102.803 83.6099C109.07 86.8534 111.53 94.591 108.287 100.858C105.043 107.127 97.3044 109.587 91.0372 106.344C89.5837 105.592 88.3227 104.596 87.2694 103.383C88.1934 102.565 89.0631 101.685 89.876 100.749C90.6543 101.701 91.6202 102.487 92.7345 103.064C97.1942 105.372 102.7 103.621 105.008 99.1618C107.316 94.7022 105.566 89.1963 101.106 86.8883C100.255 86.448 99.3516 86.1492 98.4242 85.9939L100.113 82.7301C100.116 82.7256 100.119 82.7215 100.121 82.717C100.123 82.7124 100.125 82.7076 100.127 82.7031L100.181 82.5995C101.084 82.8377 101.962 83.175 102.803 83.6099ZM96.8013 82.6702L94.701 86.7285C94.7003 86.7299 94.6995 86.7315 94.6988 86.7329L91.0855 93.7146C87.9329 99.8062 82.5969 104.306 76.0609 106.386C72.4411 107.535 68.5625 107.871 64.8276 107.364L49.4991 99.4309C49.1522 99.0595 48.8133 98.6778 48.4876 98.2835C50.2421 97.2632 51.4864 95.7619 52.0027 93.9845C52.0034 93.9822 52.0042 93.9802 52.005 93.9779C52.0057 93.9752 52.0061 93.9722 52.007 93.9696C52.6725 91.6541 52.0835 89.1607 50.3475 86.9479C48.7214 84.875 46.2497 83.2771 43.3872 82.4491C43.1268 82.3739 42.8651 82.3064 42.6026 82.2452C42.5453 78.0448 43.5278 73.8723 45.4749 70.11L51.1908 59.0655L96.8013 82.6702ZM35.8566 89.7224C38.0221 88.528 39.8184 86.8615 41.0098 84.9624C41.5292 85.0422 42.0488 85.1527 42.5629 85.301C46.262 86.3712 48.974 89.0545 49.2699 91.6422L39.9256 88.9415C39.1378 88.7139 38.3149 89.1676 38.0871 89.9552C37.8872 90.6472 38.2133 91.3664 38.8296 91.6854C38.9146 91.7294 39.0056 91.766 39.1012 91.7934L48.4515 94.4957C47.8336 95.2755 46.9002 95.8947 45.7125 96.2927C45.7093 96.2937 45.7062 96.295 45.7031 96.2961C45.2087 96.4604 44.684 96.5799 44.14 96.657L33.0549 90.9201C34.0094 90.624 34.947 90.2243 35.8566 89.7224ZM68.9108 124.732L32.9581 106.126L34.1844 103.756L70.1371 122.363L68.9108 124.732Z" fill="black"/>
<path d="M85.9615 56.197C85.1445 56.2658 84.5381 56.9838 84.6069 57.8008C84.6512 58.3287 84.9667 58.7686 85.4048 58.9953C85.6447 59.1195 85.9216 59.1796 86.2105 59.1553C89.7226 58.8595 92.7848 56.8174 94.4018 53.693C95.701 51.1827 95.8885 48.3149 94.9866 45.7087C97.6353 44.94 99.8681 43.1307 101.167 40.6206C102.784 37.496 102.683 33.8169 100.896 30.7786C100.481 30.072 99.5706 29.8358 98.8642 30.2516C98.1575 30.6672 97.9216 31.577 98.3372 32.2837C99.6035 34.4369 99.6758 37.0433 98.5307 39.2559C97.3856 41.4685 95.216 42.9146 92.7269 43.1242C91.6593 43.2127 91.0284 44.4316 91.5719 45.356C92.8381 47.5092 92.9105 50.1156 91.7654 52.3282C90.6204 54.541 88.4507 55.9873 85.9615 56.197C88.4507 55.9873 85.1445 56.2658 85.9615 56.197Z" fill="black"/>
<path d="M95.2397 60.9987C94.4227 61.0676 93.8162 61.7855 93.8851 62.6025C93.9294 63.1305 94.2449 63.5703 94.683 63.797C94.9229 63.9212 95.1998 63.9814 95.4887 63.9571C99.0006 63.6612 102.063 61.6191 103.68 58.4947C105.297 55.3703 105.196 51.691 103.409 48.653C102.994 47.9464 102.084 47.7101 101.377 48.126C100.67 48.5414 100.434 49.4514 100.85 50.1581C102.116 52.3112 102.188 54.9178 101.043 57.1304C99.8984 59.3427 97.7287 60.789 95.2397 60.9987Z" fill="black"/>
<path d="M75.9238 51.0021C75.1068 51.071 74.5003 51.7889 74.5691 52.6059C74.6135 53.1339 74.929 53.5737 75.367 53.8004C75.607 53.9246 75.8838 53.9848 76.1728 53.9605C79.6849 53.6647 82.7471 51.6226 84.364 48.4982C85.9811 45.3736 85.8798 41.6945 84.0932 38.6563C83.6777 37.9496 82.7674 37.7134 82.0611 38.1292C81.3543 38.5448 81.1184 39.4546 81.534 40.1613C82.8003 42.3145 82.8726 44.9209 81.7275 47.1335C80.5826 49.3462 78.4129 50.7925 75.9238 51.0021Z" fill="black"/>
</g>
<defs>
<clipPath id="clip0_5_659">
<rect width="101.339" height="101.339" fill="white" transform="translate(51.5741 4.99588) rotate(27.363)"/>
</clipPath>
</defs>
</svg>
