<svg width="131" height="197" viewBox="0 0 131 197" fill="none" xmlns="http://www.w3.org/2000/svg">
<g clip-path="url(#clip0_5_475)">
<path d="M131 65.4587C131 101.61 65.4999 197 65.4999 197C65.4999 197 -0.00012207 101.61 -0.00012207 65.4587C-0.00012207 29.3077 29.326 0.00012207 65.4999 0.00012207C101.674 0.00012207 131 29.3077 131 65.4587Z" fill="#262C69"/>
<path d="M87.2702 84.3294C99.2936 72.3136 99.2936 52.8321 87.2702 40.8164C75.2468 28.8006 55.753 28.8006 43.7296 40.8164C31.7062 52.8321 31.7062 72.3136 43.7296 84.3294C55.753 96.3452 75.2468 96.3452 87.2702 84.3294Z" fill="#F9DBB8"/>
<path d="M11.2269 71.2081C11.2269 39.8032 36.7015 14.3448 68.1262 14.3448C86.4952 14.3448 102.826 23.0461 113.231 36.5452C103.405 19.5001 84.991 8.02258 63.8925 8.02258C32.4648 8.02258 6.99022 33.481 6.99022 64.8859C6.99022 77.9333 11.3907 89.9534 18.7874 99.5488C13.9775 91.2051 11.2269 81.5278 11.2269 71.2081Z" fill="#4B5083"/>
<path d="M50.0544 171.963C58.9796 186.908 65.4999 197 65.4999 197C65.4999 197 131 101.61 131 65.4587C131 63.5614 130.9 61.6854 130.742 59.8306C128.158 69.8745 124.504 79.6518 120.015 88.9866C107.618 114.778 89.2822 131.302 69.7547 152.227C63.4589 158.97 56.9052 165.641 50.0514 171.966L50.0544 171.963Z" fill="#191F5A"/>
</g>
<defs>
<clipPath id="clip0_5_475">
<rect width="131" height="197" fill="white"/>
</clipPath>
</defs>
</svg>
